<svg width="64" height="63" viewBox="0 0 64 63" fill="none" xmlns="http://www.w3.org/2000/svg">
<g id="icons">
<g id="Social Media Icon" filter="url(#filter0_dd_5012_243)">
<rect x="18" y="15" width="28" height="28" rx="6" fill="#070707"/>
</g>
<path id="Twitter" d="M34.3544 23.3228V23.3203H35.0108L35.2507 23.3682C35.4106 23.3993 35.5558 23.4401 35.6862 23.4905C35.8167 23.5409 35.9429 23.5998 36.0649 23.667C36.187 23.7342 36.2976 23.8027 36.3969 23.8725C36.4954 23.9414 36.5838 24.0145 36.6621 24.0918C36.7395 24.17 36.8602 24.1902 37.0243 24.1523C37.1885 24.1145 37.3652 24.062 37.5546 23.9948C37.7439 23.9275 37.9312 23.8519 38.1163 23.7678C38.3015 23.6838 38.4143 23.6304 38.4547 23.6077C38.4942 23.5842 38.5153 23.5716 38.5178 23.5699L38.5203 23.5661L38.5329 23.5598L38.5455 23.5535L38.5582 23.5472L38.5708 23.5409L38.5733 23.5371L38.5771 23.5346L38.5809 23.5321L38.5834 23.5283L38.596 23.5245L38.6087 23.522L38.6061 23.5409L38.6023 23.5598L38.596 23.5787L38.5897 23.5977L38.5834 23.6103L38.5771 23.6229L38.5708 23.6418C38.5666 23.6544 38.5624 23.6712 38.5582 23.6922C38.554 23.7132 38.514 23.7973 38.4382 23.9443C38.3625 24.0914 38.2678 24.2406 38.1542 24.3919C38.0406 24.5431 37.9388 24.6574 37.8487 24.7348C37.7578 24.8129 37.6976 24.8676 37.6682 24.8987C37.6387 24.9306 37.603 24.96 37.5609 24.9869L37.4977 25.0285L37.4851 25.0348L37.4725 25.0411L37.47 25.0449L37.4662 25.0474L37.4624 25.0499L37.4599 25.0537L37.4472 25.06L37.4346 25.0663L37.4321 25.0701L37.4283 25.0726L37.4245 25.0751L37.422 25.0789L37.4195 25.0827L37.4157 25.0852L37.4119 25.0877L37.4094 25.0915H37.4725L37.826 25.0159C38.0616 24.9655 38.2867 24.9045 38.5014 24.8331L38.8422 24.7196L38.8801 24.707L38.899 24.7007L38.9116 24.6944L38.9243 24.6881L38.9369 24.6818L38.9495 24.6755L38.9748 24.6717L39 24.6692V24.6944L38.9937 24.6969L38.9874 24.7007L38.9849 24.7045L38.9811 24.707L38.9773 24.7096L38.9748 24.7133L38.9722 24.7171L38.9684 24.7196L38.9647 24.7222L38.9621 24.7259L38.9596 24.7297L38.9558 24.7322L38.9495 24.7449L38.9432 24.7575L38.9394 24.76C38.9377 24.7625 38.8843 24.8339 38.7791 24.9743C38.6739 25.1155 38.6171 25.1869 38.6087 25.1886C38.6002 25.1911 38.5885 25.2037 38.5733 25.2264C38.559 25.2499 38.4698 25.3437 38.3057 25.5075C38.1416 25.6714 37.9808 25.8172 37.8235 25.945C37.6652 26.0736 37.5853 26.2316 37.5836 26.419C37.5811 26.6056 37.5714 26.8165 37.5546 27.0518C37.5377 27.2872 37.5062 27.5414 37.4599 27.8145C37.4136 28.0877 37.3421 28.3966 37.2453 28.7411C37.1485 29.0857 37.0307 29.4219 36.8918 29.7496C36.7529 30.0774 36.6078 30.3716 36.4563 30.6321C36.3048 30.8926 36.1659 31.1133 36.0397 31.2939C35.9134 31.4746 35.7851 31.6448 35.6546 31.8045C35.5242 31.9642 35.3593 32.1441 35.1598 32.3441C34.9595 32.5433 34.8501 32.6525 34.8316 32.6718C34.8122 32.6903 34.7297 32.7593 34.5841 32.8786C34.4394 32.9988 34.2837 33.1189 34.117 33.2391C33.9513 33.3585 33.7989 33.4581 33.6601 33.5379C33.5212 33.6178 33.3537 33.7089 33.1576 33.8115C32.9624 33.9148 32.7511 34.0107 32.5239 34.0989C32.2967 34.1872 32.0568 34.2691 31.8043 34.3447C31.5518 34.4204 31.3078 34.4792 31.0721 34.5212C30.8365 34.5632 30.5693 34.599 30.2705 34.6284L29.8224 34.6725V34.6788H29.0018V34.6725L28.8945 34.6662C28.823 34.662 28.7641 34.6578 28.7178 34.6536C28.6715 34.6494 28.4968 34.6263 28.1939 34.5843C27.8909 34.5422 27.6531 34.5002 27.4806 34.4582C27.3081 34.4162 27.0514 34.3363 26.7105 34.2187C26.3697 34.101 26.0781 33.9821 25.8357 33.8619C25.5942 33.7426 25.4427 33.6669 25.3812 33.635C25.3206 33.6039 25.2525 33.5652 25.1767 33.519L25.0631 33.4497L25.0606 33.4459L25.0568 33.4434L25.053 33.4408L25.0505 33.4371L25.0379 33.4308L25.0252 33.4245L25.0227 33.4207L25.0189 33.4182L25.0151 33.4156L25.0126 33.4118L25.0101 33.4081L25.0063 33.4055H25V33.3803L25.0126 33.3829L25.0252 33.3866L25.0821 33.3929C25.1199 33.3971 25.223 33.4034 25.3913 33.4118C25.5597 33.4203 25.7385 33.4203 25.9279 33.4118C26.1172 33.4034 26.3108 33.3845 26.5086 33.3551C26.7063 33.3257 26.9399 33.2753 27.2092 33.2038C27.4785 33.1324 27.7259 33.0475 27.9515 32.9492C28.1762 32.85 28.3361 32.7761 28.4312 32.7273C28.5255 32.6794 28.6694 32.5903 28.8629 32.4601L29.1533 32.2647L29.1558 32.2609L29.1596 32.2583L29.1634 32.2558L29.1659 32.252L29.1684 32.2483L29.1722 32.2457L29.176 32.2432L29.1785 32.2394L29.1912 32.2357L29.2038 32.2331L29.2063 32.2205L29.2101 32.2079L29.2139 32.2054L29.2164 32.2016L29.1154 32.1953C29.0481 32.1911 28.9829 32.1869 28.9197 32.1827C28.8566 32.1785 28.7577 32.1596 28.6231 32.126C28.4884 32.0924 28.3433 32.0419 28.1876 31.9747C28.0319 31.9075 27.8804 31.8276 27.7331 31.7352C27.5858 31.6427 27.4794 31.5658 27.4137 31.5045C27.3489 31.444 27.2647 31.3582 27.1612 31.2473C27.0586 31.1355 26.9693 31.0208 26.8936 30.9031C26.8179 30.7855 26.7455 30.6497 26.6765 30.496L26.5717 30.2665L26.5654 30.2476L26.5591 30.2287L26.5553 30.2161L26.5528 30.2035L26.5717 30.206L26.5906 30.2098L26.7295 30.2287C26.8221 30.2413 26.9672 30.2455 27.165 30.2413C27.3628 30.2371 27.4995 30.2287 27.5753 30.2161C27.651 30.2035 27.6973 30.1951 27.7142 30.1909L27.7394 30.1846L27.771 30.1783L27.8025 30.172L27.805 30.1682L27.8088 30.1657L27.8126 30.1631L27.8151 30.1594L27.7899 30.1531L27.7647 30.1468L27.7394 30.1405L27.7142 30.1341L27.6889 30.1278C27.6721 30.1236 27.6426 30.1152 27.6005 30.1026C27.5585 30.09 27.4448 30.0438 27.2597 29.964C27.0745 29.8841 26.9273 29.8064 26.8179 29.7307C26.7082 29.6549 26.6036 29.5719 26.5048 29.4824C26.4063 29.3916 26.2982 29.2748 26.1803 29.1319C26.0625 28.9891 25.9573 28.8231 25.8647 28.634C25.7722 28.4449 25.7027 28.2642 25.6564 28.0919C25.6103 27.9206 25.5799 27.7455 25.5656 27.5687L25.5428 27.304L25.5555 27.3065L25.5681 27.3103L25.5807 27.3166L25.5933 27.3229L25.606 27.3292L25.6186 27.3355L25.8142 27.4237C25.9447 27.4826 26.1067 27.533 26.3003 27.575C26.4938 27.617 26.6096 27.6402 26.6474 27.6444L26.7042 27.6507H26.8179L26.8153 27.6469L26.8115 27.6444L26.8078 27.6418L26.8052 27.6381L26.8027 27.6343L26.7989 27.6317L26.7951 27.6292L26.7926 27.6254L26.78 27.6191L26.7674 27.6128L26.7648 27.6091L26.761 27.6065L26.7573 27.604L26.7547 27.6002L26.7421 27.5939L26.7295 27.5876L26.727 27.5838C26.7244 27.5822 26.6883 27.5553 26.6184 27.5032C26.5494 27.4502 26.477 27.3817 26.4013 27.2977C26.3255 27.2136 26.2498 27.1254 26.174 27.0329C26.0981 26.9403 26.0306 26.8412 25.972 26.7367C25.9131 26.6316 25.8509 26.498 25.7852 26.3358C25.7204 26.1744 25.6712 26.0118 25.6375 25.8479C25.6039 25.684 25.5849 25.5223 25.5807 25.3626C25.5765 25.2029 25.5807 25.0663 25.5933 24.9529C25.606 24.8394 25.6312 24.7112 25.6691 24.5684C25.7069 24.4255 25.7617 24.2742 25.8332 24.1145L25.9405 23.875L25.9468 23.8561L25.9531 23.8372L25.9569 23.8347L25.9594 23.8309L25.9619 23.8271L25.9657 23.8246L25.9695 23.8271L25.972 23.8309L25.9746 23.8347L25.9784 23.8372L25.9822 23.8397L25.9847 23.8435L25.9872 23.8473L25.991 23.8498L25.9973 23.8624L26.0036 23.875L26.0074 23.8775L26.0099 23.8813L26.1803 24.0704C26.294 24.1965 26.4286 24.3372 26.5843 24.4927C26.74 24.6482 26.8263 24.7289 26.8431 24.7348C26.8599 24.7415 26.881 24.7608 26.9062 24.7928C26.9315 24.8239 27.0156 24.8982 27.1587 25.0159C27.3018 25.1335 27.489 25.2701 27.7205 25.4256C27.9519 25.5811 28.2086 25.7345 28.4905 25.8857C28.7725 26.037 29.0755 26.1736 29.3995 26.2955C29.7235 26.4173 29.9507 26.4972 30.0812 26.535C30.2116 26.5728 30.4346 26.6211 30.7502 26.68C31.0658 26.7388 31.3036 26.7766 31.4635 26.7934C31.6234 26.8102 31.7328 26.8199 31.7917 26.8224L31.8801 26.8249L31.8776 26.806L31.8738 26.7871L31.8485 26.6295C31.8317 26.5245 31.8233 26.3774 31.8233 26.1883C31.8233 25.9992 31.838 25.8248 31.8674 25.6651C31.8969 25.5054 31.9411 25.3437 32 25.1798C32.0589 25.0159 32.1166 24.8844 32.1729 24.7852C32.2302 24.6869 32.3051 24.5747 32.3977 24.4486C32.4902 24.3225 32.6102 24.1923 32.7574 24.0578C32.9047 23.9233 33.073 23.8036 33.2624 23.6985C33.4518 23.5935 33.6264 23.5136 33.7863 23.459C33.9462 23.4044 34.0809 23.3686 34.1903 23.3518C34.2997 23.335 34.3544 23.3254 34.3544 23.3228Z" fill="white"/>
</g>
<defs>
<filter id="filter0_dd_5012_243" x="0.813271" y="0.268518" width="62.3735" height="62.3735" filterUnits="userSpaceOnUse" color-interpolation-filters="sRGB">
<feFlood flood-opacity="0" result="BackgroundImageFix"/>
<feColorMatrix in="SourceAlpha" type="matrix" values="0 0 0 0 0 0 0 0 0 0 0 0 0 0 0 0 0 0 127 0" result="hardAlpha"/>
<feOffset dy="2.45525"/>
<feGaussianBlur stdDeviation="8.59336"/>
<feColorMatrix type="matrix" values="0 0 0 0 1 0 0 0 0 1 0 0 0 0 1 0 0 0 0.1 0"/>
<feBlend mode="normal" in2="BackgroundImageFix" result="effect1_dropShadow_5012_243"/>
<feColorMatrix in="SourceAlpha" type="matrix" values="0 0 0 0 0 0 0 0 0 0 0 0 0 0 0 0 0 0 127 0" result="hardAlpha"/>
<feOffset dy="1.22762"/>
<feGaussianBlur stdDeviation="2.45525"/>
<feColorMatrix type="matrix" values="0 0 0 0 1 0 0 0 0 1 0 0 0 0 1 0 0 0 0.03 0"/>
<feBlend mode="normal" in2="effect1_dropShadow_5012_243" result="effect2_dropShadow_5012_243"/>
<feBlend mode="normal" in="SourceGraphic" in2="effect2_dropShadow_5012_243" result="shape"/>
</filter>
</defs>
</svg>
