<svg width="64" height="63" viewBox="0 0 64 63" fill="none" xmlns="http://www.w3.org/2000/svg">
<g id="icons">
<g id="Social Media Icon" filter="url(#filter0_dd_5012_260)">
<rect x="18" y="15" width="28" height="28" rx="6" fill="#070707"/>
</g>
<path id="YouTube" d="M32.341 34.4286L29.1815 34.3695C28.1585 34.349 27.133 34.39 26.1301 34.1769C24.6044 33.8584 24.4964 32.2967 24.3833 30.9867C24.2274 29.145 24.2877 27.2699 24.5818 25.4437C24.7479 24.4189 25.4012 23.8075 26.4116 23.7409C29.8224 23.4994 33.2559 23.5281 36.6592 23.6407C37.0186 23.6511 37.3805 23.7075 37.735 23.7718C39.4844 24.0851 39.5271 25.8549 39.6405 27.3447C39.7536 28.8499 39.7058 30.3628 39.4897 31.8577C39.3162 33.0954 38.9844 34.1334 37.5841 34.2336C35.8297 34.3646 34.1154 34.4701 32.356 34.4365C32.3561 34.4286 32.346 34.4286 32.341 34.4286ZM30.4835 31.2949C31.8057 30.5192 33.1026 29.7563 34.4172 28.9858C33.0926 28.21 31.7981 27.4472 30.4835 26.6766V31.2949Z" fill="white"/>
</g>
<defs>
<filter id="filter0_dd_5012_260" x="0.813271" y="0.268518" width="62.3735" height="62.3735" filterUnits="userSpaceOnUse" color-interpolation-filters="sRGB">
<feFlood flood-opacity="0" result="BackgroundImageFix"/>
<feColorMatrix in="SourceAlpha" type="matrix" values="0 0 0 0 0 0 0 0 0 0 0 0 0 0 0 0 0 0 127 0" result="hardAlpha"/>
<feOffset dy="2.45525"/>
<feGaussianBlur stdDeviation="8.59336"/>
<feColorMatrix type="matrix" values="0 0 0 0 1 0 0 0 0 1 0 0 0 0 1 0 0 0 0.1 0"/>
<feBlend mode="normal" in2="BackgroundImageFix" result="effect1_dropShadow_5012_260"/>
<feColorMatrix in="SourceAlpha" type="matrix" values="0 0 0 0 0 0 0 0 0 0 0 0 0 0 0 0 0 0 127 0" result="hardAlpha"/>
<feOffset dy="1.22762"/>
<feGaussianBlur stdDeviation="2.45525"/>
<feColorMatrix type="matrix" values="0 0 0 0 1 0 0 0 0 1 0 0 0 0 1 0 0 0 0.03 0"/>
<feBlend mode="normal" in2="effect1_dropShadow_5012_260" result="effect2_dropShadow_5012_260"/>
<feBlend mode="normal" in="SourceGraphic" in2="effect2_dropShadow_5012_260" result="shape"/>
</filter>
</defs>
</svg>
